<?xml version="1.0" encoding="utf-8"?>
<!-- Generator: Adobe Illustrator 28.2.0, SVG Export Plug-In . SVG Version: 6.00 Build 0)  -->
<svg version="1.1" id="Logo_00000158727625646119494500000015711314265259652764_"
	 xmlns="http://www.w3.org/2000/svg" xmlns:xlink="http://www.w3.org/1999/xlink" x="0px" y="0px" viewBox="0 0 500 498.2"
	 style="enable-background:new 0 0 500 498.2;" xml:space="preserve">
<g>
	<path d="M250,5.7C115.1,5.7,5.7,115,5.7,250c0,114.5,78.8,210.7,185.3,237V324.6h-50.3l0,0V250l0,0l0,0H191v-32.1
		c0-83.1,37.6-121.6,119.2-121.6l0,0l0,0c1.9,0,4,0,6.2,0.1h0.1c0.2,0,0.4,0,0.7,0c14,0.6,32.3,2.7,42.8,5.1
		c1.3,0.3,2.3,0.6,3.4,0.8V170l0,0l0,0c-5.8-0.6-15.7-0.9-28.2-0.9c-40.1,0-55.5,15.1-55.5,54.6V250h79.8l0,0l-13.7,74.6l0,0l0,0
		h-66.1v167.9C400.6,477.8,494.3,374.8,494.3,250C494.3,115,384.9,5.7,250,5.7z"/>
</g>
</svg>
