<svg width="58" height="58" viewBox="0 0 58 58" fill="none" xmlns="http://www.w3.org/2000/svg">
<g filter="url(#filter0_d_121_1498)">
<path d="M29 0C42.8086 0 54 11.1914 54 25C54 38.8086 42.8086 50 29 50C15.1914 50 4 38.8086 4 25C4 11.1914 15.1914 0 29 0Z" fill="url(#paint0_linear_121_1498)"/>
<path d="M28.9998 12.687C33.0127 12.687 33.4863 12.712 35.0566 12.7867C36.5272 12.8615 37.3248 13.0859 37.8482 13.3102C38.5461 13.5844 39.0446 13.9084 39.5681 14.4318C40.0915 14.9552 40.4155 15.4537 40.6897 16.1517C40.8891 16.6751 41.1384 17.4727 41.2131 18.9433C41.2879 20.5385 41.3128 20.9872 41.3128 25.0001C41.3128 29.0131 41.2879 29.4866 41.2131 31.0569C41.1384 32.5275 40.914 33.3251 40.6897 33.8486C40.4155 34.5465 40.0915 35.045 39.5681 35.5684C39.0446 36.0919 38.5461 36.4159 37.8482 36.6901C37.3248 36.8895 36.5272 37.1387 35.0566 37.2135C33.4614 37.2882 33.0127 37.3132 28.9998 37.3132C24.9868 37.3132 24.5132 37.2882 22.9429 37.2135C21.4724 37.1387 20.6747 36.9144 20.1513 36.6901C19.4534 36.4159 18.9549 36.0919 18.4315 35.5684C17.9081 35.045 17.584 34.5465 17.3098 33.8486C17.1104 33.3251 16.8612 32.5275 16.7864 31.0569C16.7116 29.4617 16.6867 29.0131 16.6867 25.0001C16.6867 20.9872 16.7116 20.5136 16.7864 18.9433C16.8612 17.4727 17.0855 16.6751 17.3098 16.1517C17.584 15.4537 17.9081 14.9552 18.4315 14.4318C18.9549 13.9084 19.4534 13.5844 20.1513 13.3102C20.6747 13.1108 21.4724 12.8615 22.9429 12.7867C24.5382 12.712 25.0117 12.687 28.9998 12.687ZM28.9998 9.99512C24.912 9.99512 24.4135 10.02 22.8183 10.0948C21.2231 10.1696 20.1264 10.4188 19.1792 10.7927C18.1822 11.1666 17.3597 11.69 16.5122 12.5375C15.6897 13.36 15.1663 14.2075 14.7675 15.2045C14.3936 16.1517 14.1443 17.2484 14.0696 18.8436C13.9948 20.4388 13.9698 20.9622 13.9698 25.025C13.9698 29.0878 13.9948 29.6113 14.0696 31.2065C14.1443 32.8017 14.3936 33.8984 14.7675 34.8456C15.1414 35.8426 15.6648 36.6651 16.5122 37.5126C17.3348 38.3351 18.1822 38.8585 19.1792 39.2574C20.1264 39.6312 21.2231 39.8805 22.8183 39.9553C24.4135 40.03 24.9369 40.0549 28.9998 40.0549C33.0626 40.0549 33.586 40.03 35.1812 39.9553C36.7765 39.8805 37.8731 39.6312 38.8203 39.2574C39.8173 38.8835 40.6399 38.3601 41.4873 37.5126C42.3099 36.6901 42.8333 35.8426 43.2321 34.8456C43.606 33.8984 43.8552 32.8017 43.93 31.2065C44.0048 29.6113 44.0297 29.0878 44.0297 25.025C44.0297 20.9373 44.0048 20.4388 43.93 18.8436C43.8552 17.2484 43.606 16.1517 43.2321 15.2045C42.8582 14.2075 42.3348 13.385 41.4873 12.5375C40.6648 11.715 39.8173 11.1915 38.8203 10.7927C37.8731 10.4188 36.7765 10.1696 35.1812 10.0948C33.586 10.02 33.0875 9.99512 28.9998 9.99512Z" fill="white"/>
<path d="M29.0005 17.2982C24.7383 17.2982 21.2986 20.7378 21.2986 25.0001C21.2986 29.2623 24.7383 32.7019 29.0005 32.7019C33.2627 32.7019 36.7024 29.2623 36.7024 25.0001C36.7273 20.7378 33.2627 17.2982 29.0005 17.2982ZM29.0005 30.01C26.2338 30.01 23.9905 27.7668 23.9905 25.0001C23.9905 22.2334 26.2338 19.9901 29.0005 19.9901C31.7672 19.9901 34.0105 22.2334 34.0105 25.0001C34.0105 27.7668 31.7672 30.01 29.0005 30.01Z" fill="white"/>
<path d="M37.0259 18.7935C38.023 18.7935 38.8206 17.9959 38.8206 16.9989C38.8206 16.0019 38.023 15.2043 37.0259 15.2043C36.0289 15.2043 35.2313 16.0019 35.2313 16.9989C35.2313 17.971 36.0289 18.7935 37.0259 18.7935Z" fill="white"/>
</g>
<defs>
<filter id="filter0_d_121_1498" x="0" y="0" width="58" height="58" filterUnits="userSpaceOnUse" color-interpolation-filters="sRGB">
<feFlood flood-opacity="0" result="BackgroundImageFix"/>
<feColorMatrix in="SourceAlpha" type="matrix" values="0 0 0 0 0 0 0 0 0 0 0 0 0 0 0 0 0 0 127 0" result="hardAlpha"/>
<feOffset dy="4"/>
<feGaussianBlur stdDeviation="2"/>
<feComposite in2="hardAlpha" operator="out"/>
<feColorMatrix type="matrix" values="0 0 0 0 0 0 0 0 0 0 0 0 0 0 0 0 0 0 0.25 0"/>
<feBlend mode="normal" in2="BackgroundImageFix" result="effect1_dropShadow_121_1498"/>
<feBlend mode="normal" in="SourceGraphic" in2="effect1_dropShadow_121_1498" result="shape"/>
</filter>
<linearGradient id="paint0_linear_121_1498" x1="46.3729" y1="44.8654" x2="12.7238" y2="6.2313" gradientUnits="userSpaceOnUse">
<stop stop-color="#A51CAD"/>
<stop offset="0.5" stop-color="#FF3B7E"/>
<stop offset="1" stop-color="#FBDB20"/>
</linearGradient>
</defs>
</svg>
