<svg width="20" height="20" viewBox="0 0 20 20" fill="none" xmlns="http://www.w3.org/2000/svg">
<g clip-path="url(#clip0_1347_1732)">
<path d="M16.2333 10.2917C14.9249 6.89168 10.2666 6.70835 11.3916 1.76668C11.4749 1.40002 11.0833 1.11668 10.7666 1.30835C7.74159 3.09168 5.56659 6.66668 7.39159 11.35C7.54159 11.7333 7.09159 12.0917 6.76659 11.8417C5.25825 10.7 5.09992 9.05835 5.23325 7.88335C5.28325 7.45002 4.71659 7.24168 4.47492 7.60002C3.90825 8.46668 3.33325 9.86668 3.33325 11.975C3.64992 16.6417 7.59159 18.075 9.00825 18.2584C11.0333 18.5167 13.2249 18.1417 14.7999 16.7C16.5333 15.0917 17.1666 12.525 16.2333 10.2917ZM8.49992 14.4833C9.69992 14.1917 10.3166 13.325 10.4833 12.5583C10.7583 11.3667 9.68325 10.2 10.4083 8.31668C10.6833 9.87502 13.1333 10.85 13.1333 12.55C13.1999 14.6583 10.9166 16.4667 8.49992 14.4833Z" fill="#9D44C0"/>
</g>
<defs>
<clipPath id="clip0_1347_1732">
<rect width="20" height="20" fill="white"/>
</clipPath>
</defs>
</svg>
