<svg width="301" height="301" viewBox="0 0 301 301" fill="none" xmlns="http://www.w3.org/2000/svg">
<path d="M150.5 0C67.3723 0 0 67.3723 0 150.5C0 233.628 67.3723 301 150.5 301C233.628 301 301 233.628 301 150.5C301 67.3723 233.628 0 150.5 0ZM225.985 115.168V135.568C216.403 135.568 207.055 133.686 198.237 129.983C192.593 127.572 187.302 124.515 182.481 120.812L182.599 183.539C182.54 197.649 176.955 210.935 166.843 220.929C158.613 229.042 148.207 234.216 136.861 235.921C134.215 236.332 131.511 236.508 128.748 236.508C116.637 236.508 105.174 232.57 95.7674 225.338C94.0037 223.986 92.2988 222.517 90.7115 220.929C79.7768 210.112 74.0742 195.415 75.0736 179.953C75.7791 168.196 80.4822 156.967 88.36 148.207C98.7656 136.567 113.287 130.1 128.807 130.1C131.511 130.1 134.215 130.277 136.92 130.688V138.213V159.201C134.392 158.378 131.687 157.907 128.924 157.907C114.756 157.907 103.234 169.489 103.469 183.657C103.586 192.769 108.583 200.706 115.873 205.056C119.342 207.114 123.281 208.407 127.513 208.642C130.806 208.819 133.98 208.348 136.92 207.408C147.031 204.057 154.38 194.533 154.38 183.304L154.439 141.329V64.5504H182.481C182.481 67.3135 182.775 70.0178 183.304 72.6633C185.421 83.3041 191.417 92.534 199.765 98.8244C207.055 104.292 216.109 107.584 225.926 107.584H225.985V115.168Z" fill="black"/>
</svg>
