<svg width="50" height="50" viewBox="0 0 50 50" fill="none" xmlns="http://www.w3.org/2000/svg">
<path d="M25 0C38.8086 0 50 11.1914 50 25C50 38.8086 38.8086 50 25 50C11.1915 50 4.14617e-05 38.8086 4.14617e-05 25C-0.0248837 11.1914 11.1915 0 25 0Z" fill="#E52421"/>
<path d="M42.1233 16.4008C41.6995 14.8804 40.5032 13.659 38.9827 13.2602C36.1911 12.4876 24.9997 12.4875 24.9997 12.4875C24.9997 12.4875 13.8083 12.4876 11.0167 13.2353C9.52115 13.659 8.27486 14.8804 7.87606 16.4257C7.1283 19.2174 7.1283 25.0249 7.1283 25.0249C7.1283 25.0249 7.1283 30.8574 7.87606 33.6241C8.29979 35.1446 9.49622 36.3659 11.0167 36.7647C13.8332 37.5374 24.9997 37.5374 24.9997 37.5374C24.9997 37.5374 36.1911 37.5374 38.9827 36.7896C40.5032 36.3659 41.7245 35.1695 42.1233 33.6491C42.871 30.8575 42.8711 25.0499 42.8711 25.0499C42.8711 25.0499 42.896 19.1924 42.1233 16.4008Z" fill="white"/>
<path d="M21.4353 30.3589L30.7324 25L21.4353 19.6411V30.3589Z" fill="#E52421"/>
</svg>
