<svg width="301" height="301" viewBox="0 0 301 301" fill="none" xmlns="http://www.w3.org/2000/svg">
<path d="M150.627 182.578C166.662 182.578 179.662 169.579 179.662 153.543C179.662 137.508 166.662 124.508 150.627 124.508C134.591 124.508 121.592 137.508 121.592 153.543C121.592 169.579 134.591 182.578 150.627 182.578Z" fill="#010202"/>
<path d="M218.459 102.32C216.938 98.2624 214.909 95.3463 211.993 92.3033C208.95 89.2603 206.034 87.3585 201.977 85.837C198.934 84.6959 194.369 83.3012 185.874 82.794C176.745 82.4136 173.956 82.2869 150.753 82.2869C127.551 82.2869 124.761 82.2869 115.633 82.794C107.138 83.1744 102.573 84.5691 99.5302 85.837C95.4729 87.3585 92.5567 89.3871 89.5138 92.3033C86.4708 95.3463 84.5689 98.2624 83.0475 102.32C81.9064 105.363 80.5117 109.927 80.0045 118.422C79.6241 127.551 79.4973 130.34 79.4973 153.543C79.4973 176.746 79.4973 179.535 80.0045 188.664C80.3849 197.159 81.7796 201.723 83.0475 204.766C84.5689 208.824 86.5976 211.74 89.5138 214.783C92.5567 217.826 95.4729 219.727 99.5302 221.249C102.573 222.39 107.138 223.785 115.633 224.292C124.761 224.672 127.551 224.799 150.753 224.799C173.956 224.799 176.745 224.799 185.874 224.292C194.369 223.912 198.934 222.517 201.977 221.249C206.034 219.727 208.95 217.699 211.993 214.783C215.036 211.74 216.938 208.824 218.459 204.766C219.601 201.723 220.995 197.159 221.502 188.664C221.883 179.535 222.01 176.746 222.01 153.543C222.01 130.34 222.01 127.551 221.502 118.422C221.122 109.927 219.601 105.363 218.459 102.32ZM150.627 198.3C125.903 198.3 105.997 178.267 105.997 153.67C105.997 129.072 126.029 109.04 150.627 109.04C175.351 109.04 195.257 129.072 195.257 153.67C195.257 178.267 175.224 198.3 150.627 198.3ZM197.032 117.535C191.2 117.535 186.635 112.843 186.635 107.138C186.635 101.305 191.326 96.7409 197.032 96.7409C202.864 96.7409 207.429 101.432 207.429 107.138C207.555 112.97 202.864 117.535 197.032 117.535Z" fill="#010202"/>
<path d="M150.5 0C67.3256 0 0 67.3256 0 150.5C0 233.674 67.3256 301 150.5 301C233.674 301 301 233.674 301 150.5C301 67.3256 233.548 0 150.5 0ZM237.098 189.425C236.717 198.68 235.196 205.02 233.04 210.599C230.758 216.304 227.842 221.249 223.024 226.067C218.206 230.885 213.388 233.928 207.556 236.083C201.977 238.239 195.637 239.634 186.382 240.141C177.126 240.521 174.21 240.648 150.5 240.648C126.79 240.648 123.874 240.521 114.618 240.141C105.363 239.76 99.0231 238.239 93.4444 236.083C87.7388 233.801 82.794 230.885 77.976 226.067C73.158 221.249 70.115 216.431 67.9596 210.599C65.8041 205.02 64.4094 198.68 63.9023 189.425C63.5219 180.169 63.3951 177.253 63.3951 153.543C63.3951 129.833 63.5219 126.917 63.9023 117.661C64.2826 108.406 65.8041 102.066 67.9596 96.4874C70.2418 90.7818 73.158 85.837 77.976 81.019C82.794 76.2009 87.612 73.158 93.4444 71.0025C99.0231 68.8471 105.363 67.4524 114.618 66.9452C123.874 66.5649 126.79 66.4381 150.5 66.4381C174.21 66.4381 177.126 66.5649 186.382 66.9452C195.637 67.3256 201.977 68.8471 207.556 71.0025C213.261 73.2848 218.206 76.2009 223.024 81.019C227.842 85.837 230.885 90.655 233.04 96.4874C235.196 102.066 236.591 108.406 237.098 117.661C237.605 126.917 237.605 129.833 237.605 153.543C237.605 177.253 237.478 180.169 237.098 189.425Z" fill="#010202"/>
</svg>
