<?xml version="1.0" encoding="utf-8"?>
<!-- Generator: Adobe Illustrator 28.2.0, SVG Export Plug-In . SVG Version: 6.00 Build 0)  -->
<svg version="1.1" id="katman_1" xmlns="http://www.w3.org/2000/svg" xmlns:xlink="http://www.w3.org/1999/xlink" x="0px" y="0px"
	 viewBox="0 0 197.5 197.3" style="enable-background:new 0 0 197.5 197.3;" xml:space="preserve">
<g>
	<path d="M101.1,100.4c-11.6,0.7-15.4,6.3-15.2,11.3c0.4,6.8,7.7,9.9,14.7,9.5c6.9-0.4,14.7-3.1,16-19.7c-3.6-0.8-7.5-1.2-11.7-1.2
		C103.7,100.3,102.4,100.4,101.1,100.4z"/>
	<path d="M98.8,0.3c-54.3,0-98.4,44-98.4,98.4s44,98.4,98.4,98.4s98.4-44,98.4-98.4S153.1,0.3,98.8,0.3z M65.1,137.3
		c7.6,9.6,19.2,14.5,34.6,14.7c13.9-0.1,23-3.4,30.7-11c8.7-8.7,8.5-19.4,5.8-25.9c-1.6-3.8-4.6-7-8.6-9.4c-1,7.3-3.2,13-6.7,17.5
		c-4.6,5.9-11.2,9.1-19.6,9.5c-6.4,0.3-12.5-1.2-17.2-4.3c-5.6-3.7-8.9-9.4-9.3-16c-0.7-13,9.6-22.4,25.7-23.3
		c5.7-0.3,11-0.1,16,0.8c-0.7-4-2-7.2-4-9.5c-2.7-3.2-6.9-4.8-12.5-4.8c0,0-0.1,0-0.2,0c-4.5,0-10.5,1.2-14.4,7.1l-9.3-6.4
		c5.2-7.9,13.6-12.2,23.7-12.2c0.1,0,0.2,0,0.2,0c16.9,0.1,27,10.7,28,29.1c0.6,0.2,1.1,0.5,1.7,0.8c7.9,3.8,13.6,9.5,16.7,16.5
		c4.2,9.8,4.6,25.8-8.2,38.6c-9.8,9.8-21.7,14.2-38.5,14.3h-0.1c-18.9-0.1-33.5-6.5-43.3-18.9C47.7,133.4,43.2,118,43,98.7v0v0
		c0.2-19.3,4.6-34.7,13.3-45.8C66.2,40.4,80.7,34,99.7,33.9h0.1c19,0.1,33.7,6.5,43.8,18.9c5,6.1,8.6,13.5,10.9,22l-10.9,2.9
		c-1.9-7-4.8-12.9-8.7-17.6c-7.9-9.7-19.7-14.6-35.2-14.7c-15.4,0.1-27,5-34.6,14.7c-7.1,9-10.7,22-10.9,38.7
		C54.4,115.3,58.1,128.3,65.1,137.3z"/>
</g>
</svg>
